<?xml version="1.0" standalone="no"?>
<!DOCTYPE svg PUBLIC "-//W3C//DTD SVG 20010904//EN"
 "http://www.w3.org/TR/2001/REC-SVG-20010904/DTD/svg10.dtd">
<svg version="1.0" xmlns="http://www.w3.org/2000/svg"
 width="1024.000000pt" height="1024.000000pt" viewBox="0 0 1024.000000 1024.000000"
 preserveAspectRatio="xMidYMid meet" pointer-events="none">
<metadata>
Created by potrace 1.16, written by Peter Selinger 2001-2019
</metadata>
<g fill="currentColor" transform="translate(0.000000,1024.000000) scale(0.100000,-0.100000)"
stroke="none">
<path d="M5064 8859 c-86 -25 -1918 -1073 -1988 -1137 -16 -15 -37 -45 -47
-67 -18 -38 -19 -90 -18 -1145 0 -921 2 -1112 14 -1145 8 -23 32 -57 57 -79
24 -21 228 -144 453 -273 226 -130 595 -341 820 -471 602 -346 614 -352 657
-368 79 -28 149 -15 268 50 30 16 267 147 525 291 259 144 497 277 530 295
863 478 872 483 895 568 7 29 10 370 8 1139 l-3 1098 -23 47 c-13 25 -37 57
-55 70 -18 13 -160 98 -317 188 -1653 950 -1598 918 -1657 936 -52 16 -74 16
-119 3z m623 -620 c307 -177 664 -382 793 -456 129 -75 250 -144 268 -155 l33
-20 -203 -115 c-561 -318 -1027 -583 -1280 -729 l-177 -102 -163 93 c-176 100
-651 370 -1083 615 -148 84 -303 172 -342 195 l-73 41 88 50 c48 28 206 120
352 204 146 84 312 180 370 215 58 34 128 74 155 89 28 16 169 97 315 181 346
199 374 215 382 215 4 0 258 -145 565 -321z m1253 -1821 l0 -953 -98 -54 c-53
-29 -329 -182 -612 -339 -283 -157 -578 -320 -655 -362 -77 -43 -177 -98 -223
-124 -45 -25 -84 -46 -87 -46 -3 0 -4 421 -3 936 l3 936 465 266 c256 145 632
360 835 477 204 117 371 213 373 214 1 1 2 -428 2 -951z m-3499 861 c79 -45
185 -104 234 -131 50 -28 299 -170 555 -316 256 -145 529 -301 608 -345 l142
-81 0 -938 c0 -516 -3 -938 -6 -938 -3 0 -137 76 -297 169 -322 186 -747 430
-1134 652 l-253 144 0 933 c0 512 2 932 4 932 2 0 69 -37 147 -81z"/>
<path d="M3685 4406 c-17 -8 -39 -24 -50 -36 -20 -22 -20 -41 -25 -781 l-5
-758 -185 185 c-102 102 -195 190 -208 195 -80 31 -178 -25 -189 -109 -11 -83
-1 -97 321 -420 165 -167 313 -310 328 -318 33 -17 95 -18 124 -1 12 7 163
151 336 320 261 256 317 315 327 348 37 123 -80 228 -193 174 -18 -9 -111 -94
-206 -190 -95 -96 -173 -175 -174 -175 0 0 -1 333 -1 739 0 731 0 740 -21 767
-47 64 -119 87 -179 60z"/>
<path d="M5560 4052 c-25 -25 -41 -51 -46 -77 -7 -39 22 -284 81 -675 13 -85
27 -180 30 -210 4 -30 13 -100 21 -155 8 -55 17 -118 20 -140 3 -22 14 -94 24
-160 10 -66 22 -144 25 -174 4 -30 8 -62 10 -71 2 -9 6 -41 10 -70 4 -29 9
-62 11 -74 2 -12 20 -140 39 -284 23 -176 40 -273 52 -292 26 -44 71 -64 129
-57 45 5 54 11 114 74 65 68 275 313 304 355 9 12 17 20 19 17 8 -8 313 -494
358 -569 25 -41 60 -85 79 -97 39 -27 94 -30 146 -8 46 19 349 220 397 264 85
77 86 133 3 263 -29 46 -95 149 -147 231 -151 237 -178 281 -179 293 0 6 46
21 103 34 256 57 390 91 427 110 69 35 96 131 54 195 -14 21 -161 124 -769
540 -49 34 -223 151 -385 260 -162 109 -329 222 -370 250 -362 250 -389 265
-479 265 -37 0 -49 -6 -81 -38z m905 -792 c215 -145 469 -318 566 -385 l176
-120 -181 -44 c-312 -75 -316 -77 -316 -159 0 -44 9 -64 92 -198 50 -82 134
-219 186 -304 53 -85 113 -178 134 -207 21 -29 38 -54 38 -57 0 -11 -194 -136
-200 -129 -4 4 -83 130 -175 278 -288 462 -316 499 -381 493 -42 -3 -50 -11
-257 -266 -101 -125 -100 -125 -110 -12 -3 36 -29 227 -56 425 -28 198 -53
385 -56 415 -4 30 -8 57 -10 60 -2 3 -6 33 -10 67 -3 34 -8 71 -10 82 -2 11
-6 46 -10 78 -3 32 -17 134 -31 226 -13 93 -24 173 -24 178 0 6 55 -28 123
-74 67 -46 298 -202 512 -347z"/>
</g>
</svg>
