<svg version="1.0" fill="currentColor" xmlns="http://www.w3.org/2000/svg" viewBox="0 0 10240 10240">
<g transform="scale(1, -1) translate(0, -10240)">
 <path d="M4865 8514 c-497 -50 -886 -160 -1280 -363 -345 -177 -606 -371 -876
-649 -526 -540 -832 -1183 -936 -1962 -23 -169 -25 -647 -5 -810 86 -677 321
-1240 735 -1757 90 -113 325 -351 452 -458 520 -437 1133 -694 1855 -776 131
-15 489 -15 635 0 1342 138 2463 1039 2878 2316 170 523 212 1006 136 1555
-102 735 -428 1390 -948 1910 -541 541 -1200 866 -1976 976 -105 14 -576 27
-670 18z m595 -360 c1069 -124 2000 -804 2433 -1775 169 -381 257 -806 257
-1249 0 -712 -229 -1374 -669 -1930 -98 -123 -349 -376 -471 -474 -192 -153
-446 -307 -662 -401 -711 -307 -1481 -335 -2224 -81 -444 152 -813 382 -1139
710 -339 341 -576 717 -729 1156 -123 352 -174 694 -163 1105 18 687 233 1291
648 1815 106 135 345 374 479 480 282 224 625 409 951 515 423 137 854 180
1289 129z"/>
<path d="M4993 7275 c-114 -31 -221 -108 -283 -205 -98 -152 -94 -368 8 -526
98 -151 296 -235 480 -204 143 24 280 118 344 237 81 148 76 348 -11 485 -111
175 -341 266 -538 213z"/>
<path d="M4490 5848 c-147 -40 -188 -240 -68 -331 42 -32 102 -46 199 -47 42
0 124 -3 182 -7 l107 -6 0 -994 0 -995 -222 4 c-203 3 -226 1 -261 -16 -102
-51 -129 -187 -54 -273 61 -69 29 -66 774 -71 l672 -4 46 22 c131 63 131 257
1 328 -25 13 -66 17 -214 20 l-183 4 7 1101 c5 824 4 1113 -5 1144 -14 51 -51
97 -88 111 -37 14 -845 23 -893 10z"/>
</g>
</svg>
