<?xml version="1.0" standalone="no"?>
<!DOCTYPE svg PUBLIC "-//W3C//DTD SVG 20010904//EN"
 "http://www.w3.org/TR/2001/REC-SVG-20010904/DTD/svg10.dtd">
<svg version="1.0" xmlns="http://www.w3.org/2000/svg"
 width="1024.000000pt" height="1024.000000pt" viewBox="0 0 1024.000000 1024.000000"
 preserveAspectRatio="xMidYMid meet" pointer-events="none">
<metadata>
Created by potrace 1.16, written by Peter Selinger 2001-2019
</metadata>
<g fill="currentColor" transform="translate(0.000000,1024.000000) scale(0.100000,-0.100000)"
stroke="none">
<path d="M6643 8680 c-72 -10 -160 -44 -239 -91 -40 -24 -256 -236 -742 -729
-833 -843 -1245 -1261 -1542 -1565 -124 -126 -396 -403 -606 -615 -423 -428
-482 -489 -538 -564 -92 -121 -117 -248 -76 -376 l23 -72 -84 -86 c-46 -48
-186 -190 -311 -317 -184 -187 -228 -237 -237 -270 -8 -28 -11 -335 -11 -1010
0 -904 1 -972 18 -1005 35 -71 125 -100 205 -66 19 8 366 352 892 885 l860
872 90 -7 c286 -22 431 9 587 122 25 19 289 283 586 587 530 542 686 703 1367
1402 187 193 521 535 740 760 383 392 402 414 443 495 94 190 95 375 1 569
-41 85 -45 90 -453 494 -226 224 -438 428 -471 454 -141 108 -327 157 -502
133z m237 -312 c45 -21 130 -98 475 -437 487 -477 491 -482 488 -621 -3 -107
-30 -159 -147 -280 -113 -117 -722 -744 -946 -975 -91 -93 -332 -341 -535
-550 -413 -425 -659 -677 -1137 -1161 -364 -369 -365 -370 -509 -387 -161 -19
-521 37 -623 97 -25 15 -70 49 -99 76 l-52 49 110 113 c61 62 301 307 535 543
234 237 557 569 719 738 l294 308 31 -28 c17 -15 41 -38 54 -50 27 -25 94 -49
163 -58 59 -9 154 15 223 55 60 34 1046 1018 1092 1090 69 105 84 158 81 283
-2 91 -6 109 -35 170 -38 82 -143 192 -215 225 -109 51 -233 65 -332 38 -124
-33 -128 -36 -715 -628 -313 -315 -565 -578 -578 -601 -21 -37 -23 -53 -20
-127 3 -59 10 -97 24 -125 l20 -40 -516 -525 c-283 -289 -658 -669 -832 -845
l-318 -320 -186 185 c-102 102 -192 197 -200 212 -20 37 -18 97 5 134 10 17
207 222 437 455 231 234 684 694 1009 1024 324 330 783 796 1020 1035 236 239
533 540 660 668 272 276 298 294 430 288 50 -2 87 -10 125 -28z m-153 -1063
c75 -45 105 -147 65 -222 -9 -17 -147 -165 -307 -329 -159 -164 -375 -386
-479 -494 -104 -107 -203 -203 -220 -213 -55 -31 -87 -17 -202 91 -57 53 -104
102 -104 107 0 16 1041 1051 1075 1069 47 24 121 20 172 -9z m-3017 -3444 c36
-30 94 -68 130 -84 36 -17 66 -31 67 -32 3 -1 -689 -705 -1119 -1140 l-228
-230 0 755 0 755 277 277 277 277 265 -262 c146 -144 295 -287 331 -316z"/>
<path d="M3129 2117 c-43 -29 -62 -69 -61 -126 0 -47 19 -81 66 -115 27 -21
33 -21 1029 -21 952 0 1003 1 1029 18 83 57 89 184 10 242 -27 20 -45 20
-1033 23 l-1006 2 -34 -23z"/>
</g>
</svg>
