<svg xmlns="http://www.w3.org/2000/svg" version="1.0" fill="currentColor" viewBox="0 0 760 765"><path d="M497 111.7c-2.5.9-6.7 3.1-9.5 4.9-2.7 1.8-82.9 81.3-178.1 176.6-199 199.1-179.8 178-179.9 198.8 0 11.2.1 11.7 3.6 19 3.4 7.1 5.8 9.7 45.1 49.1 37.4 37.5 42.1 41.9 47.9 44.6 16.2 7.6 32.8 6.6 46.5-2.7 3.7-2.4 71.6-69.7 178-176.2C601.2 275 623 252.8 625.2 248c4.8-10.4 6-21.9 3.4-31.5-3.3-12.2-3.8-12.9-47.5-56.8-39.2-39.4-42-42-49.1-45.5-7.2-3.5-8-3.7-19-3.9-8.6-.2-12.6.2-16 1.4m24.8 24.7c3.3 1.7 16.1 13.9 43.3 41.3 40.6 40.8 40.9 41.2 40.9 50 0 9.3 8.3.5-174.8 183.4L259.5 582.7l-6 1.6c-5.3 1.5-6.8 1.5-11.1.4-2.7-.7-6.1-2.1-7.4-3-4.5-3.2-78.2-77.2-79.7-80.1-.8-1.6-1.7-5.4-2-8.5-.7-9.2 1.3-11.8 28.8-38.9l24.7-24.3 17.8 18.1c9.9 10 19.1 18.8 20.6 19.6 10.5 5.4 23-6.5 17.7-16.9-.6-1.2-9.4-10.6-19.6-20.8l-18.6-18.7 14.6-14.6c8.1-8 15-14.6 15.4-14.6.5 0 8.9 8.1 18.8 18 18.7 18.8 21.5 20.7 27.4 19 5-1.4 6.7-2.8 8.5-6.9 3.6-7.8 2.6-9.4-18.2-30.4l-18.7-18.8 15.9-15.6 15.9-15.5 18.2 18.2c18 18 18.4 18.3 23.1 18.7 6.1.6 11.1-2.4 13.2-7.9 2.9-7.5 1.8-9.2-18-29l-18-18.1 15.3-15.3 15.4-15.4 21 20.9c22.5 22.3 24 23.4 31 21.1 8.5-2.8 11.3-12.9 5.6-20.6-1.6-2.1-11-12-21-21.9l-18.1-18 14.7-14.7 14.8-14.8 19.5 19.4c21 20.8 22.3 21.8 29.5 19.4 5.7-1.9 8.8-6.8 8.2-13.2-.4-4.8-.6-5-19.8-24.2L419.5 217l15.5-15.5 15.5-15.5 18 18 18.1 18h5.2c4.5 0 5.5-.4 8.7-3.5 3.2-3.2 3.5-4.1 3.5-9.2v-5.7l-17.7-17.8-17.8-17.8 15-15.1c8.9-9 16.6-15.9 19-17 5.7-2.7 13.5-2.5 19.3.5m-65.3 317c-1.7.7-3.9 2.6-4.9 4.1-2.1 3.2-1.9 10.1.7 24.5 1.5 8 5.4 30.6 9.7 55.5 1 6 3.1 17.7 4.5 26 4.6 26.4 5.6 31.8 7.4 43 3 17.9 4 20.5 9.3 23.9 3.4 2.2 8.1 1.5 11.9-1.7 1.4-1.2 7.4-8.2 13.4-15.5 5.9-7.2 10.9-13.2 11-13.2s8 10.4 17.6 23.2c9.6 12.7 18.7 24.4 20.2 26 5.3 5.3 9 4 25.2-8.8 3.9-3.1 11.3-8.9 16.6-12.9 17.2-13.1 17.5-14.7 6.1-29.7-10.3-13.7-13.3-17.5-22.5-29.1-4.3-5.4-7.7-10-7.5-10.1.1-.2 5.7-2.5 12.3-5.1 18.3-7.3 22.1-9.3 24-13 2.3-4.2 1.4-9.3-2.3-12.7-1.5-1.4-16.6-9.6-33.7-18.3-17-8.7-35.9-18.4-42-21.5-6-3.1-19.8-10.2-30.5-15.7-42.9-22-41.2-21.4-46.5-18.9m25.8 33.5c6.4 3.5 29.7 15.5 64.2 33.1 14.3 7.3 26.3 13.6 26.7 13.9.4.4-4.5 2.9-11 5.6-13.7 5.8-16.2 8-16.2 14 0 4.8-.8 3.6 19.5 29.4 6.6 8.4 13.9 17.8 16.3 20.9l4.3 5.7-2.3 1.5c-1.2.8-5.5 4.1-9.6 7.3-4 3.2-7.7 5.5-8.2 5.2s-9.9-12.4-20.9-26.9-20.7-26.6-21.6-27c-3.5-1.3-8.2-.6-10.6 1.7-1.3 1.2-5.7 6.4-9.8 11.5-4.1 5-7.7 9.2-8.1 9.2-.6 0-2.4-9.4-6.1-31.5-1.7-10.1-4.8-28.2-6.4-37-1.8-10.3-5-28.9-5.9-35.3-.3-2.3-.4-4.2-.1-4.2.4 0 2.9 1.3 5.8 2.9"/></svg>
