<?xml version="1.0" standalone="no"?>
<!DOCTYPE svg PUBLIC "-//W3C//DTD SVG 20010904//EN"
 "http://www.w3.org/TR/2001/REC-SVG-20010904/DTD/svg10.dtd">
<svg version="1.0" xmlns="http://www.w3.org/2000/svg"
 width="1024.000000pt" height="1024.000000pt" viewBox="0 0 1024.000000 1024.000000"
 preserveAspectRatio="xMidYMid meet" pointer-events="none">
<metadata>
Created by potrace 1.16, written by Peter Selinger 2001-2019
</metadata>
<g fill="currentColor" transform="translate(0.000000,1024.000000) scale(0.100000,-0.100000)"
stroke="none">
<path d="M4770 8536 c-213 -60 -360 -244 -360 -451 l0 -73 -217 -133 c-386
-236 -373 -225 -373 -296 0 -77 67 -140 139 -130 22 3 135 64 299 162 l263
156 35 -30 c44 -39 112 -73 199 -102 131 -42 292 -5 431 98 17 13 34 23 38 23
4 0 129 -68 277 -151 171 -96 283 -153 307 -155 66 -9 129 47 139 124 10 73
16 68 -364 287 l-243 140 0 62 c0 136 -43 248 -129 333 -124 124 -295 176
-441 136z m198 -275 c78 -40 116 -107 110 -192 -3 -47 -11 -66 -35 -96 -38
-48 -83 -75 -142 -84 -60 -10 -107 3 -155 43 -115 95 -96 260 39 331 43 23
137 22 183 -2z"/>
<path d="M3445 7429 c-17 -5 -158 -85 -315 -178 -264 -158 -286 -169 -305
-156 -244 178 -579 97 -711 -171 -62 -125 -59 -275 9 -412 45 -92 125 -171
214 -213 l73 -34 0 -280 c0 -159 5 -296 10 -317 6 -20 26 -50 46 -67 48 -43
105 -43 162 -1 l42 30 0 323 1 322 67 30 c95 42 188 136 227 230 25 60 29 84
29 165 1 52 -2 109 -6 125 l-6 30 295 180 c208 127 301 189 314 210 59 95 -35
213 -146 184z m-839 -510 c37 -14 96 -72 115 -114 51 -110 -15 -241 -137 -274
-104 -28 -226 47 -253 154 -21 83 24 181 104 223 59 31 110 34 171 11z"/>
<path d="M6261 7430 c-18 -4 -48 -22 -65 -39 -27 -28 -31 -38 -31 -87 0 -52 3
-59 36 -88 20 -17 132 -87 248 -156 339 -201 333 -197 321 -219 -5 -11 -10
-60 -10 -110 0 -186 96 -344 256 -425 29 -14 57 -26 63 -26 8 0 11 -86 11
-295 0 -247 3 -301 16 -335 39 -97 172 -107 221 -17 16 28 18 68 21 337 l3
305 69 32 c79 38 169 116 207 180 87 148 83 341 -9 485 -35 56 -126 141 -177
167 -140 72 -323 66 -457 -15 -31 -19 -59 -34 -63 -34 -3 0 -60 32 -126 72
-154 92 -487 278 -494 277 -3 -1 -21 -5 -40 -9z m1049 -520 c184 -94 147 -340
-58 -385 -21 -4 -52 -1 -88 11 -139 44 -192 209 -102 319 60 72 168 96 248 55z"/>
<path d="M2495 5291 c-28 -12 -62 -51 -74 -84 -7 -18 -11 -141 -11 -330 l0
-303 -66 -28 c-165 -72 -274 -239 -274 -420 0 -139 40 -237 136 -332 72 -72
141 -108 244 -130 132 -27 232 -1 375 100 18 13 35 5 190 -85 341 -199 405
-232 454 -236 86 -8 148 58 138 144 -2 24 -12 52 -21 62 -9 10 -149 94 -310
186 l-294 168 9 31 c29 100 -10 274 -84 370 -48 64 -125 125 -191 152 l-46 19
0 308 c0 326 -3 350 -48 391 -24 21 -96 30 -127 17z m123 -990 c69 -35 122
-113 122 -177 0 -90 -65 -173 -155 -199 -51 -15 -59 -15 -108 1 -69 22 -130
84 -146 149 -22 89 24 181 114 228 42 23 127 21 173 -2z"/>
<path d="M7152 5280 c-57 -35 -62 -62 -62 -325 0 -254 6 -289 52 -319 43 -28
83 -30 132 -7 70 34 76 59 76 319 0 119 -5 233 -10 253 -23 82 -119 123 -188
79z"/>
<path d="M6149 4803 c-50 -31 -59 -60 -59 -195 0 -234 133 -2313 150 -2351 29
-61 122 -87 188 -53 27 14 139 134 339 362 l71 82 252 -417 c139 -229 267
-430 285 -448 44 -42 96 -56 144 -39 57 19 502 294 539 332 45 47 44 100 -1
175 -43 70 -396 624 -453 711 -47 73 -49 69 26 83 105 19 454 137 506 171 44
29 67 80 62 135 -3 28 -13 58 -23 69 -17 18 -196 153 -780 583 -235 174 -256
188 -705 512 -453 327 -420 305 -471 305 -24 0 -56 -8 -70 -17z m365 -488 c78
-56 193 -139 256 -185 213 -155 421 -305 443 -320 64 -42 544 -399 580 -431
15 -12 -103 -50 -203 -66 -236 -37 -332 -69 -363 -123 -32 -54 -21 -102 48
-200 18 -26 79 -121 136 -211 138 -221 305 -485 340 -535 l28 -41 -125 -77
c-69 -42 -129 -76 -134 -76 -8 0 -49 64 -360 575 -100 165 -198 315 -216 333
-26 25 -42 32 -72 32 -76 0 -95 -14 -254 -196 -103 -119 -154 -169 -155 -157
-3 22 -41 619 -48 758 -3 55 -19 303 -35 552 -17 248 -30 459 -30 468 0 20
-10 26 164 -100z"/>
<path d="M3891 3403 c-72 -37 -94 -132 -43 -190 15 -18 99 -73 187 -123 88
-50 210 -121 270 -157 l110 -66 -3 -72 c-7 -139 35 -251 133 -351 75 -76 163
-120 272 -135 96 -14 160 -3 262 46 170 82 269 246 259 432 l-4 83 190 118
c105 65 224 138 264 162 40 23 81 54 92 68 42 52 15 153 -49 187 -61 31 -81
24 -360 -144 l-264 -159 -48 34 c-173 125 -412 122 -574 -6 l-36 -29 -47 29
c-26 16 -148 85 -272 155 -243 137 -278 149 -339 118z m1075 -458 c80 -40 123
-122 110 -210 -21 -136 -187 -210 -306 -137 -132 81 -135 253 -6 340 62 41
128 44 202 7z"/>
</g>
</svg>
